<svg width="255" height="80" viewBox="0 0 255 80" fill="none" xmlns="http://www.w3.org/2000/svg">
<g clip-path="url(#clip0_2_355)">
<path d="M234.693 -1.46582e-05H20.3181C19.5366 -1.46582e-05 18.7646 -1.46581e-05 17.9852 0.00398534C17.3328 0.00798534 16.6857 0.0196053 16.027 0.0293853C14.5961 0.0451889 13.1685 0.163338 11.7567 0.382805C10.347 0.607051 8.98132 1.02982 7.70604 1.63681C6.43232 2.24893 5.26848 3.04432 4.25675 3.99413C3.23971 4.94126 2.39193 6.03602 1.74601 7.23631C1.0983 8.4342 0.649178 9.71786 0.414153 11.0429C0.176893 12.3664 0.0492219 13.705 0.0322841 15.0469C0.0125088 15.6601 0.0104204 16.2754 0 16.8887V63.1172C0.0104204 63.7382 0.0125088 64.3398 0.0322841 64.961C0.049227 66.3028 0.176899 67.6414 0.414153 68.9648C0.648529 70.2906 1.09768 71.575 1.74601 72.7734C2.39164 73.9698 3.23954 75.0601 4.25675 76.002C5.26465 76.956 6.42923 77.7519 7.70604 78.3594C8.98131 78.968 10.3468 79.3933 11.7567 79.621C13.1688 79.8387 14.5962 79.9569 16.027 79.9746C16.6857 79.9882 17.3328 79.996 17.9852 79.996C18.7646 80 19.5367 80 20.3181 80H234.693C235.459 80 236.238 80 237.003 79.996C237.653 79.996 238.319 79.9882 238.968 79.9746C240.396 79.9578 241.821 79.8396 243.23 79.621C244.644 79.3917 246.015 78.9665 247.296 78.3594C248.572 77.7516 249.735 76.9557 250.742 76.002C251.757 75.0564 252.607 73.9669 253.26 72.7734C253.904 71.5742 254.349 70.2899 254.58 68.9648C254.817 67.6413 254.949 66.3029 254.975 64.961C254.983 64.3398 254.983 63.7382 254.983 63.1172C255 62.3906 255 61.668 255 60.9296V19.0722C255 18.3398 255 17.6133 254.983 16.8887C254.983 16.2754 254.983 15.6601 254.975 15.0469C254.949 13.7048 254.817 12.3665 254.58 11.0429C254.348 9.71855 253.903 8.43499 253.26 7.23623C251.945 4.83038 249.859 2.87204 247.296 1.63663C246.015 1.03112 244.644 0.608466 243.23 0.382625C241.821 0.162191 240.396 0.0440009 238.968 0.0291053C238.319 0.0193453 237.653 0.00762534 237.003 0.00372534C236.238 -0.000274658 235.459 -0.000274658 234.693 -0.000274658V-1.46582e-05Z" fill="#A6A6A6"/>
<path d="M17.9956 78.25C17.3464 78.25 16.7128 78.2422 16.0686 78.2286C14.7342 78.2123 13.4028 78.1032 12.0856 77.9024C10.8572 77.7038 9.66734 77.3345 8.5551 76.8066C7.45305 76.2831 6.4479 75.5965 5.57814 74.7734C4.69579 73.96 3.9612 73.0165 3.40347 71.9804C2.83959 70.9376 2.44936 69.8198 2.24635 68.666C2.02713 67.4262 1.90852 66.1726 1.89155 64.916C1.87804 64.4942 1.86035 63.0898 1.86035 63.0898V16.8887C1.86035 16.8887 1.87919 15.5059 1.89166 15.0996C1.90791 13.845 2.02583 12.5933 2.24439 11.3555C2.44777 10.1985 2.83831 9.0775 3.40249 8.03126C3.95817 6.99589 4.68869 6.05172 5.56572 5.23536C6.44176 4.41124 7.45013 3.72121 8.55406 3.19042C9.66374 2.66419 10.8514 2.29747 12.0772 2.10254C13.3988 1.89967 14.7348 1.78999 16.0739 1.77442L17.9967 1.75H236.993L238.939 1.7754C240.266 1.7902 241.589 1.8989 242.899 2.10058C244.137 2.29795 245.337 2.66723 246.46 3.19628C248.671 4.26597 250.471 5.95833 251.606 8.03614C252.161 9.07516 252.545 10.187 252.746 11.334C252.967 12.582 253.091 13.8435 253.117 15.1084C253.123 15.6748 253.123 16.2832 253.123 16.8887C253.14 17.6387 253.14 18.3525 253.14 19.0723V60.9296C253.14 61.6562 253.14 62.3652 253.123 63.08C253.123 63.7304 253.123 64.3262 253.115 64.9394C253.09 66.1817 252.968 67.4207 252.75 68.6464C252.551 69.8085 252.163 70.935 251.6 71.9864C251.038 73.0112 250.308 73.9465 249.435 74.7578C248.565 75.5854 247.558 76.2759 246.453 76.8028C245.334 77.3348 244.136 77.7055 242.899 77.9024C241.582 78.1043 240.25 78.2134 238.916 78.2286C238.292 78.2422 237.638 78.25 237.003 78.25L234.693 78.254L17.9956 78.25Z" fill="black"/>
<path d="M52.7816 40.6013C52.8045 38.932 53.2769 37.2952 54.155 35.8433C55.033 34.3914 56.288 33.1716 57.8033 32.2972C56.8407 31.0069 55.5708 29.945 54.0944 29.1959C52.618 28.4468 50.9758 28.0311 49.2983 27.9819C45.7199 27.6293 42.2508 29.9915 40.4273 29.9915C38.5685 29.9915 35.761 28.0169 32.7377 28.0752C30.7822 28.1345 28.8764 28.6682 27.206 29.6244C25.5355 30.5805 24.1575 31.9264 23.2061 33.531C19.0848 40.2278 22.1589 50.0699 26.1068 55.4831C28.0819 58.1338 30.3904 61.0947 33.4109 60.9897C36.3667 60.8747 37.4706 59.2208 41.0385 59.2208C44.5733 59.2208 45.609 60.9897 48.6908 60.923C51.8625 60.8746 53.8608 58.2605 55.7667 55.5847C57.1859 53.696 58.2779 51.6085 59.0024 49.3997C57.1597 48.6682 55.5872 47.4439 54.481 45.8793C53.3748 44.3147 52.7837 42.4791 52.7816 40.6013Z" fill="white"/>
<path d="M46.9605 24.4218C48.6899 22.4733 49.5418 19.969 49.3355 17.4405C46.6935 17.701 44.253 18.8861 42.5003 20.7597C41.6433 21.6751 40.987 22.7399 40.5688 23.8935C40.1506 25.047 39.9788 26.2666 40.0631 27.4825C41.3846 27.4953 42.6919 27.2265 43.8867 26.6963C45.0814 26.1661 46.1324 25.3884 46.9605 24.4218Z" fill="white"/>
<path d="M90.1446 54.2793H80.0579L77.6356 60.9922H73.3633L82.9173 36.1562H87.3561L96.91 60.9922H92.5648L90.1446 54.2793ZM81.1026 51.1816H89.098L85.1565 40.2871H85.0462L81.1026 51.1816Z" fill="white"/>
<path d="M117.543 51.9395C117.543 57.5664 114.334 61.1816 109.492 61.1816C108.265 61.2419 107.045 60.9767 105.972 60.4164C104.898 59.8561 104.014 59.0234 103.422 58.0136H103.33V66.9824H99.3698V42.8848H103.203V45.8965H103.276C103.896 44.8915 104.795 44.0632 105.876 43.4995C106.958 42.9358 108.182 42.6579 109.419 42.6953C114.316 42.6953 117.543 46.3281 117.543 51.9395ZM113.473 51.9395C113.473 48.2735 111.454 45.8633 108.374 45.8633C105.349 45.8633 103.313 48.3242 103.313 51.9395C103.313 55.5879 105.349 58.0313 108.374 58.0313C111.454 58.0313 113.473 55.6387 113.473 51.9395Z" fill="white"/>
<path d="M138.778 51.9394C138.778 57.5664 135.569 61.1816 130.727 61.1816C129.5 61.2418 128.28 60.9766 127.206 60.4164C126.133 59.8561 125.249 59.0234 124.656 58.0136H124.565V66.9824H120.604V42.8847H124.438V45.8965H124.511C125.131 44.8915 126.029 44.0631 127.111 43.4995C128.193 42.9358 129.417 42.6579 130.654 42.6953C135.55 42.6953 138.778 46.3281 138.778 51.9394ZM134.708 51.9394C134.708 48.2734 132.689 45.8633 129.609 45.8633C126.583 45.8633 124.548 48.3242 124.548 51.9394C124.548 55.5879 126.583 58.0312 129.609 58.0312C132.689 58.0312 134.708 55.6387 134.708 51.9394H134.708Z" fill="white"/>
<path d="M152.812 54.0722C153.106 56.5351 155.655 58.1522 159.139 58.1522C162.477 58.1522 164.878 56.5351 164.878 54.3143C164.878 52.3866 163.43 51.2323 160 50.4413L156.571 49.6659C151.712 48.5643 149.456 46.4315 149.456 42.9706C149.456 38.6854 153.435 35.7421 159.085 35.7421C164.676 35.7421 168.51 38.6854 168.639 42.9706H164.641C164.402 40.4921 162.219 38.996 159.028 38.996C155.838 38.996 153.655 40.5097 153.655 42.7128C153.655 44.4686 155.05 45.5018 158.46 46.2928L161.376 46.9647C166.805 48.1697 169.061 50.2167 169.061 53.8494C169.061 58.4959 165.117 61.4061 158.845 61.4061C152.977 61.4061 149.015 58.5643 148.759 54.0721L152.812 54.0722Z" fill="white"/>
<path d="M177.608 38.5996V42.8847H181.277V45.8281H177.608V55.8105C177.608 57.3613 178.342 58.084 179.955 58.084C180.391 58.0768 180.826 58.0481 181.258 57.998V60.9237C180.533 61.0509 179.796 61.1085 179.058 61.0956C175.152 61.0956 173.629 59.7187 173.629 56.2069V45.8281H170.824V42.8847H173.629V38.5996H177.608Z" fill="white"/>
<path d="M183.401 51.9394C183.401 46.2422 186.977 42.6621 192.552 42.6621C198.146 42.6621 201.704 46.2421 201.704 51.9394C201.704 57.6523 198.164 61.2168 192.552 61.2168C186.941 61.2168 183.401 57.6523 183.401 51.9394ZM197.669 51.9394C197.669 48.0312 195.761 45.7246 192.552 45.7246C189.343 45.7246 187.437 48.0488 187.437 51.9394C187.437 55.8633 189.343 58.1523 192.552 58.1523C195.761 58.1523 197.669 55.8633 197.669 51.9394H197.669Z" fill="white"/>
<path d="M204.969 42.8847H208.746V45.9667H208.838C209.093 45.0042 209.694 44.1535 210.539 43.5577C211.384 42.962 212.422 42.6574 213.478 42.6953C213.935 42.6938 214.39 42.7403 214.835 42.8339V46.3105C214.259 46.1453 213.658 46.0694 213.056 46.0859C212.481 46.064 211.907 46.1592 211.375 46.365C210.842 46.5707 210.364 46.8822 209.972 47.278C209.58 47.6738 209.283 48.1445 209.103 48.6578C208.924 49.1712 208.864 49.715 208.929 50.2519V60.9921H204.969L204.969 42.8847Z" fill="white"/>
<path d="M233.094 55.6738C232.561 58.9609 229.151 61.2168 224.787 61.2168C219.174 61.2168 215.691 57.6875 215.691 52.0254C215.691 46.3457 219.193 42.6621 224.62 42.6621C229.958 42.6621 233.315 46.1035 233.315 51.5937V52.8672H219.688V53.0918C219.625 53.7582 219.714 54.4295 219.949 55.0612C220.184 55.6929 220.559 56.2704 221.05 56.7555C221.541 57.2406 222.136 57.6221 222.796 57.8747C223.456 58.1274 224.166 58.2453 224.878 58.2207C225.814 58.3029 226.753 58.0995 227.556 57.6406C228.359 57.1818 228.982 56.4919 229.334 55.6738L233.094 55.6738ZM219.707 50.2695H229.352C229.388 49.6703 229.291 49.0707 229.068 48.5083C228.845 47.9458 228.501 47.4328 228.056 47.0012C227.612 46.5697 227.077 46.229 226.486 46.0006C225.895 45.7722 225.259 45.6609 224.62 45.6738C223.975 45.6702 223.336 45.7865 222.739 46.016C222.143 46.2454 221.6 46.5836 221.143 47.0108C220.687 47.4381 220.324 47.9461 220.078 48.5054C219.831 49.0647 219.705 49.6642 219.707 50.2695V50.2695Z" fill="white"/>
<path d="M80.6064 17.462C81.4366 17.4061 82.2697 17.5238 83.0456 17.8067C83.8216 18.0895 84.5209 18.5305 85.0933 19.0977C85.6656 19.665 86.0967 20.3444 86.3554 21.0869C86.6141 21.8295 86.694 22.6166 86.5893 23.3917C86.5893 27.2042 84.3938 29.3957 80.6064 29.3957H76.0135V17.462H80.6064ZM77.9884 27.708H80.3858C80.979 27.7413 81.5727 27.65 82.1237 27.4408C82.6746 27.2315 83.1689 26.9096 83.5706 26.4985C83.9723 26.0874 84.2712 25.5974 84.4456 25.0641C84.6201 24.5309 84.6657 23.9678 84.579 23.416C84.6594 22.8663 84.6092 22.3068 84.4321 21.7775C84.2549 21.2481 83.9553 20.7621 83.5545 20.3543C83.1537 19.9464 82.6618 19.6268 82.114 19.4183C81.5662 19.2098 80.976 19.1177 80.3858 19.1484H77.9884V27.708Z" fill="white"/>
<path d="M88.8201 24.8887C88.7598 24.2968 88.8319 23.6997 89.0319 23.1356C89.2319 22.5714 89.5553 22.0527 89.9813 21.6128C90.4074 21.1728 90.9267 20.8213 91.506 20.5807C92.0853 20.3402 92.7118 20.2159 93.3453 20.2159C93.9788 20.2159 94.6052 20.3402 95.1845 20.5807C95.7639 20.8213 96.2832 21.1728 96.7093 21.6128C97.1353 22.0527 97.4587 22.5714 97.6587 23.1356C97.8587 23.6997 97.9308 24.2968 97.8705 24.8887C97.9319 25.4811 97.8607 26.0791 97.6612 26.6441C97.4618 27.2092 97.1386 27.7288 96.7124 28.1696C96.2862 28.6105 95.7665 28.9627 95.1866 29.2038C94.6067 29.4449 93.9795 29.5694 93.3453 29.5694C92.7111 29.5694 92.0839 29.4449 91.504 29.2038C90.9241 28.9627 90.4044 28.6105 89.9782 28.1696C89.552 27.7288 89.2288 27.2092 89.0294 26.6441C88.8299 26.0791 88.7586 25.4811 88.8201 24.8887ZM95.9226 24.8887C95.9226 22.9365 94.9882 21.7949 93.3484 21.7949C91.7023 21.7949 90.7763 22.9365 90.7763 24.8887C90.7763 26.8565 91.7024 27.9893 93.3484 27.9893C94.9883 27.9892 95.9226 26.8486 95.9226 24.8887H95.9226Z" fill="white"/>
<path d="M109.901 29.3955H107.936L105.953 22.7627H105.803L103.829 29.3955H101.883L99.2378 20.3896H101.159L102.878 27.2616H103.019L104.992 20.3896H106.809L108.781 27.2616H108.931L110.642 20.3896H112.536L109.901 29.3955Z" fill="white"/>
<path d="M114.76 20.3896H116.583V21.8203H116.725C116.965 21.3065 117.369 20.8757 117.883 20.5881C118.396 20.3005 118.992 20.1703 119.588 20.2158C120.055 20.1829 120.524 20.2489 120.96 20.4091C121.396 20.5693 121.788 20.8195 122.107 21.1412C122.426 21.4629 122.663 21.8478 122.802 22.2675C122.941 22.6871 122.978 23.1307 122.909 23.5654V29.3954H121.016V24.0117C121.016 22.5645 120.345 21.8447 118.945 21.8447C118.628 21.8309 118.312 21.8815 118.017 21.9932C117.723 22.1048 117.458 22.2749 117.241 22.4916C117.023 22.7084 116.858 22.9668 116.756 23.249C116.655 23.5313 116.62 23.8308 116.654 24.1269V29.3955H114.76L114.76 20.3896Z" fill="white"/>
<path d="M125.927 16.874H127.821V29.3955H125.927V16.874Z" fill="white"/>
<path d="M130.453 24.8887C130.393 24.2968 130.465 23.6996 130.665 23.1355C130.865 22.5713 131.188 22.0526 131.614 21.6126C132.041 21.1727 132.56 20.8211 133.139 20.5806C133.719 20.34 134.345 20.2158 134.979 20.2158C135.612 20.2158 136.239 20.34 136.818 20.5806C137.397 20.8211 137.917 21.1727 138.343 21.6126C138.769 22.0526 139.092 22.5713 139.292 23.1355C139.492 23.6996 139.565 24.2968 139.504 24.8887C139.566 25.4812 139.494 26.0791 139.295 26.6442C139.095 27.2092 138.772 27.7288 138.346 28.1697C137.92 28.6105 137.4 28.9627 136.82 29.2038C136.24 29.4448 135.613 29.5694 134.979 29.5694C134.344 29.5694 133.717 29.4448 133.137 29.2038C132.557 28.9627 132.038 28.6105 131.611 28.1697C131.185 27.7288 130.862 27.2092 130.662 26.6442C130.463 26.0791 130.392 25.4812 130.453 24.8887ZM137.555 24.8887C137.555 22.9365 136.621 21.7949 134.981 21.7949C133.335 21.7949 132.409 22.9365 132.409 24.8887C132.409 26.8565 133.335 27.9893 134.981 27.9893C136.621 27.9893 137.556 26.8486 137.556 24.8887H137.555Z" fill="white"/>
<path d="M141.498 26.8486C141.498 25.2275 142.784 24.293 145.067 24.1601L147.666 24.0195V23.2422C147.666 22.291 146.996 21.7539 145.702 21.7539C144.645 21.7539 143.912 22.1182 143.702 22.7549H141.868C142.062 21.208 143.612 20.2158 145.789 20.2158C148.195 20.2158 149.552 21.3398 149.552 23.2422V29.3955H147.729V28.1299H147.579C147.275 28.5839 146.848 28.954 146.341 29.2024C145.835 29.4508 145.267 29.5687 144.697 29.5439C144.294 29.5832 143.887 29.5429 143.501 29.4255C143.116 29.3081 142.762 29.1162 142.46 28.8623C142.159 28.6083 141.918 28.298 141.752 27.9511C141.586 27.6043 141.5 27.2287 141.498 26.8486ZM147.666 26.0791V25.3262L145.323 25.4668C144.002 25.5498 143.402 25.9717 143.402 26.7656C143.402 27.5761 144.151 28.0478 145.182 28.0478C145.483 28.0765 145.788 28.0479 146.078 27.9637C146.368 27.8795 146.637 27.7415 146.869 27.5578C147.1 27.3741 147.29 27.1486 147.427 26.8945C147.565 26.6405 147.646 26.3632 147.666 26.0791Z" fill="white"/>
<path d="M152.041 24.8887C152.041 22.043 153.599 20.2402 156.024 20.2402C156.623 20.2143 157.218 20.3491 157.74 20.6289C158.261 20.9087 158.686 21.3219 158.966 21.8202H159.108V16.874H161.001V29.3955H159.187V27.9726H159.037C158.735 28.4676 158.295 28.8757 157.764 29.1526C157.233 29.4296 156.631 29.5649 156.024 29.5439C153.583 29.544 152.041 27.7412 152.041 24.8887ZM153.997 24.8887C153.997 26.7988 154.956 27.9483 156.561 27.9483C158.157 27.9483 159.143 26.7823 159.143 24.8965C159.143 23.0195 158.146 21.8369 156.561 21.8369C154.966 21.8369 153.997 22.9941 153.997 24.8887H153.997Z" fill="white"/>
<path d="M168.836 24.8887C168.776 24.2968 168.848 23.6997 169.048 23.1356C169.248 22.5714 169.572 22.0527 169.998 21.6128C170.424 21.1728 170.943 20.8213 171.522 20.5807C172.102 20.3402 172.728 20.2159 173.362 20.2159C173.995 20.2159 174.622 20.3402 175.201 20.5807C175.78 20.8213 176.3 21.1728 176.726 21.6128C177.152 22.0527 177.475 22.5714 177.675 23.1356C177.875 23.6997 177.947 24.2968 177.887 24.8887C177.948 25.4811 177.877 26.0791 177.678 26.6441C177.478 27.2092 177.155 27.7288 176.729 28.1696C176.303 28.6105 175.783 28.9627 175.203 29.2038C174.623 29.4449 173.996 29.5694 173.362 29.5694C172.727 29.5694 172.1 29.4449 171.52 29.2038C170.94 28.9627 170.421 28.6105 169.995 28.1696C169.568 27.7288 169.245 27.2092 169.046 26.6441C168.846 26.0791 168.775 25.4811 168.836 24.8887ZM175.939 24.8887C175.939 22.9365 175.005 21.7949 173.365 21.7949C171.719 21.7949 170.793 22.9365 170.793 24.8887C170.793 26.8565 171.719 27.9893 173.365 27.9893C175.005 27.9892 175.939 26.8486 175.939 24.8887Z" fill="white"/>
<path d="M180.428 20.3896H182.251V21.8203H182.392C182.632 21.3065 183.037 20.8757 183.55 20.5881C184.064 20.3005 184.66 20.1703 185.256 20.2158C185.723 20.1829 186.191 20.2489 186.627 20.4091C187.063 20.5693 187.455 20.8195 187.774 21.1412C188.093 21.4629 188.331 21.8478 188.47 22.2675C188.609 22.6871 188.646 23.1307 188.577 23.5654V29.3954H186.683V24.0117C186.683 22.5645 186.013 21.8447 184.613 21.8447C184.296 21.8309 183.979 21.8815 183.685 21.9932C183.391 22.1048 183.126 22.2749 182.908 22.4916C182.691 22.7084 182.525 22.9668 182.424 23.249C182.323 23.5313 182.288 23.8308 182.321 24.1269V29.3955H180.428V20.3896Z" fill="white"/>
<path d="M199.278 18.1475V20.4307H201.357V21.9277H199.278V26.5586C199.278 27.502 199.692 27.915 200.634 27.915C200.876 27.9143 201.117 27.9006 201.357 27.874V29.3545C201.017 29.4116 200.672 29.442 200.326 29.4453C198.22 29.4453 197.382 28.75 197.382 27.0137V21.9277H195.859V20.4306H197.382V18.1475H199.278Z" fill="white"/>
<path d="M203.943 16.874H205.82V21.8369H205.97C206.222 21.3183 206.638 20.8851 207.161 20.5964C207.685 20.3077 208.291 20.1775 208.896 20.2236C209.36 20.1999 209.825 20.2727 210.256 20.4368C210.687 20.6008 211.074 20.8522 211.39 21.1729C211.705 21.4935 211.942 21.8756 212.082 22.2919C212.222 22.7082 212.263 23.1484 212.201 23.581V29.3955H210.305V24.0195C210.305 22.581 209.591 21.8525 208.253 21.8525C207.928 21.8274 207.6 21.8694 207.294 21.9755C206.987 22.0816 206.709 22.2493 206.479 22.4668C206.249 22.6843 206.073 22.9463 205.962 23.2346C205.851 23.5228 205.808 23.8304 205.837 24.1357V29.3955H203.943L203.943 16.874Z" fill="white"/>
<path d="M223.243 26.9639C222.985 27.7869 222.428 28.4989 221.668 28.9752C220.908 29.4515 219.993 29.6618 219.085 29.5693C218.453 29.585 217.824 29.4713 217.244 29.2363C216.663 29.0012 216.144 28.6504 215.722 28.2081C215.3 27.7658 214.986 27.2427 214.801 26.6751C214.617 26.1074 214.566 25.5089 214.652 24.9209C214.568 24.3311 214.62 23.7313 214.804 23.1619C214.988 22.5926 215.301 22.067 215.72 21.6209C216.14 21.1747 216.657 20.8184 217.236 20.576C217.815 20.3336 218.442 20.2107 219.076 20.2158C221.746 20.2158 223.357 21.9278 223.357 24.7558V25.376H216.581V25.4756C216.552 25.8061 216.596 26.1388 216.711 26.4523C216.827 26.7658 217.01 27.0532 217.251 27.2961C217.492 27.539 217.784 27.732 218.108 27.8628C218.433 27.9936 218.783 28.0593 219.137 28.0556C219.59 28.1066 220.049 28.0301 220.455 27.8357C220.862 27.6413 221.197 27.3378 221.42 26.9638L223.243 26.9639ZM216.581 24.0615H221.428C221.452 23.7593 221.408 23.4557 221.299 23.1702C221.191 22.8848 221.02 22.6238 220.797 22.4041C220.575 22.1844 220.306 22.0108 220.008 21.8944C219.71 21.7781 219.389 21.7216 219.066 21.7285C218.738 21.7247 218.413 21.7824 218.11 21.8983C217.807 22.0142 217.531 22.1859 217.3 22.4033C217.068 22.6207 216.885 22.8795 216.762 23.1642C216.638 23.449 216.577 23.7541 216.581 24.0615H216.581Z" fill="white"/>
</g>
<defs>
<clipPath id="clip0_2_355">
<rect width="255" height="80" fill="white"/>
</clipPath>
</defs>
</svg>
