<svg width="255" height="80" viewBox="0 0 255 80" fill="none" xmlns="http://www.w3.org/2000/svg">
<path fill-rule="evenodd" clip-rule="evenodd" d="M245.552 80H9.44792C4.24077 80 0 75.4913 0 70V10C0 4.48878 4.24077 0 9.44792 0H245.552C250.755 0 255 4.48878 255 10V70C255 75.4913 250.755 80 245.552 80Z" fill="black"/>
<path fill-rule="evenodd" clip-rule="evenodd" d="M245.552 1.601C249.92 1.601 253.494 5.37656 253.494 10V70C253.494 74.6234 249.943 78.399 245.552 78.399H9.44792C5.08048 78.399 1.50585 74.6234 1.50585 70V10C1.50585 5.37656 5.05703 1.601 9.44792 1.601H245.552ZM245.552 0H9.44792C4.24077 0 0 4.50873 0 10V70C0 75.5112 4.24077 80 9.44792 80H245.552C250.755 80 255 75.5112 255 70V10C255 4.50873 250.755 0 245.552 0Z" fill="#A6A6A6"/>
<path d="M134.335 26.4637C132.632 26.4637 131.196 25.8303 130.061 24.5834C128.935 23.3715 128.307 21.7006 128.335 19.9949C128.335 18.1745 128.916 16.6333 130.061 15.4114C131.192 14.1645 132.627 13.5311 134.33 13.5311C136.014 13.5311 137.45 14.1645 138.604 15.4114C139.748 16.6732 140.33 18.2144 140.33 19.9949C140.311 21.8203 139.729 23.3615 138.604 24.5784C137.473 25.8353 136.037 26.4637 134.335 26.4637ZM83.6661 26.4637C82.0008 26.4637 80.5559 25.8403 79.3738 24.6084C78.201 23.3814 77.6052 21.8303 77.6052 19.9999C77.6052 18.1695 78.201 16.6183 79.3738 15.3914C80.5325 14.1595 81.9773 13.5361 83.6661 13.5361C84.4917 13.5361 85.2939 13.7106 86.0633 14.0647C86.8185 14.4089 87.4331 14.8777 87.8881 15.4513L88.0007 15.5959L86.7294 16.9226L86.598 16.758C85.8803 15.8503 84.9186 15.4064 83.6473 15.4064C82.5121 15.4064 81.5223 15.8353 80.706 16.6832C79.8851 17.5361 79.4676 18.6533 79.4676 20.0049C79.4676 21.3565 79.8851 22.4737 80.706 23.3266C81.5223 24.1745 82.5121 24.6034 83.6473 24.6034C84.8577 24.6034 85.8756 24.1745 86.6684 23.3266C87.1375 22.8278 87.4284 22.1296 87.5316 21.2468H83.455V19.3814H89.2814L89.3048 19.551C89.347 19.8652 89.3892 20.1894 89.3892 20.4887C89.3892 22.2094 88.9014 23.6009 87.935 24.6283C86.8373 25.8453 85.4018 26.4637 83.6661 26.4637ZM151.035 26.1994H149.238L143.736 16.8378L143.782 18.5236V26.1944H141.986V13.8004H144.036L144.092 13.8952L149.266 22.7131L149.219 21.0323V13.8004H151.035V26.1994ZM120.834 26.1994H119.014V15.6657H115.856V13.8004H123.986V15.6657H120.829V26.1994H120.834ZM114.374 26.1994H112.559V13.8004H114.374V26.1994ZM104.171 26.1994H102.355V15.6657H99.1983V13.8004H107.328V15.6657H104.171V26.1994ZM98.049 26.1794H91.0874V13.8004H98.049V15.6657H92.9076V19.0672H97.5471V20.9126H92.9076V24.3141H98.049V26.1794ZM131.393 23.3016C132.205 24.1645 133.19 24.5984 134.335 24.5984C135.512 24.5984 136.474 24.1745 137.276 23.3016C138.073 22.4538 138.477 21.3415 138.477 19.9999C138.477 18.6582 138.073 17.541 137.281 16.6981C136.469 15.8353 135.479 15.4014 134.339 15.4014C133.162 15.4014 132.2 15.8253 131.403 16.6981C130.605 17.546 130.202 18.6582 130.202 19.9999C130.202 21.3415 130.6 22.4587 131.393 23.3016Z" fill="white"/>
<path fill-rule="evenodd" clip-rule="evenodd" d="M128.166 43.5112C123.733 43.5112 120.139 47.0873 120.139 52.02C120.139 56.9077 123.756 60.5287 128.166 60.5287C132.599 60.5287 136.192 56.9277 136.192 52.02C136.192 47.0873 132.599 43.5112 128.166 43.5112ZM128.166 57.1571C125.741 57.1571 123.653 55.0225 123.653 52C123.653 48.9327 125.745 46.8429 128.166 46.8429C130.591 46.8429 132.679 48.9327 132.679 52C132.684 55.0424 130.591 57.1571 128.166 57.1571ZM110.654 43.5112C106.221 43.5112 102.627 47.0873 102.627 52.02C102.627 56.9077 106.244 60.5287 110.654 60.5287C115.087 60.5287 118.681 56.9277 118.681 52.02C118.681 47.0873 115.082 43.5112 110.654 43.5112ZM110.654 57.1571C108.229 57.1571 106.141 55.0225 106.141 52C106.141 48.9327 108.233 46.8429 110.654 46.8429C113.079 46.8429 115.167 48.9327 115.167 52C115.167 55.0424 113.079 57.1571 110.654 57.1571ZM89.816 46.1097V49.7107H97.9457C97.6971 51.7307 97.0685 53.222 96.1068 54.2444C94.9153 55.5112 93.0763 56.8878 89.8348 56.8878C84.8387 56.8878 80.931 52.5985 80.931 47.2868C80.931 41.9751 84.8387 37.6858 89.8348 37.6858C92.5322 37.6858 94.4978 38.818 95.9567 40.2643L98.3586 37.7107C96.332 35.6459 93.6346 34.0648 89.8535 34.0648C82.9998 34.0648 77.2485 40 77.2485 47.2668C77.2485 54.5536 82.9951 60.4688 89.8535 60.4688C93.5548 60.4688 96.332 59.1821 98.5274 56.7581C100.765 54.3791 101.473 51.0225 101.473 48.3142C101.473 47.4713 101.412 46.7132 101.286 46.0698H89.8113C89.816 46.0648 89.816 46.1097 89.816 46.1097ZM175.049 48.9127C174.378 47.0025 172.352 43.4913 168.195 43.4913C164.077 43.4913 160.652 46.9377 160.652 52C160.652 56.7781 164.039 60.5087 168.594 60.5087C172.253 60.5087 174.383 58.1297 175.26 56.7332L172.544 54.798C171.643 56.2195 170.391 57.1521 168.613 57.1521C166.816 57.1521 165.559 56.2843 164.724 54.5736L175.424 49.8604C175.424 49.8653 175.049 48.9127 175.049 48.9127ZM164.138 51.7556C164.053 48.4688 166.539 46.798 168.317 46.798C169.72 46.798 170.888 47.5312 171.287 48.5985L164.138 51.7556ZM155.445 60H158.959V35.0025H155.445V60ZM149.675 45.4015H149.548C148.755 44.399 147.249 43.4913 145.326 43.4913C141.334 43.4913 137.656 47.2269 137.656 52.0249C137.656 56.803 141.315 60.4938 145.326 60.4938C147.226 60.4938 148.755 59.5811 149.548 58.5586H149.675V59.7806C149.675 63.0274 148.042 64.7781 145.411 64.7781C143.257 64.7781 141.92 63.1322 141.376 61.7556L138.322 63.1122C139.2 65.3566 141.54 68.1347 145.406 68.1347C149.525 68.1347 153.015 65.5561 153.015 59.2668V44H149.694V45.4015C149.698 45.4015 149.675 45.4015 149.675 45.4015ZM145.64 57.1571C143.215 57.1571 141.189 55.0025 141.189 52.0249C141.189 49.0225 143.215 46.8479 145.64 46.8479C148.042 46.8479 149.905 49.0474 149.905 52.0249C149.928 55.0025 148.047 57.1571 145.64 57.1571ZM191.501 35.0025H183.099V60H186.613V50.5337H191.506C195.395 50.5337 199.218 47.5362 199.218 42.7781C199.218 38.02 195.409 35.0025 191.501 35.0025ZM191.604 47.0424H186.608V38.4639H191.604C194.236 38.4639 195.723 40.7731 195.723 42.7531C195.723 44.7132 194.217 47.0424 191.604 47.0424ZM213.301 43.4663C210.749 43.4663 208.117 44.6683 207.029 47.2868L210.143 48.6634C210.814 47.2868 212.043 46.818 213.343 46.818C215.163 46.818 217.002 47.9751 217.044 50.0399V50.3042C216.415 49.9252 215.036 49.3466 213.385 49.3466C210.021 49.3466 206.611 51.3018 206.611 54.9676C206.611 58.3242 209.369 60.4788 212.442 60.4788C214.802 60.4788 216.101 59.3466 216.913 58.0349H217.039V59.9701H220.426V50.394C220.426 45.9352 217.311 43.4663 213.301 43.4663ZM212.86 57.1571C211.71 57.1571 210.101 56.5586 210.101 55.0225C210.101 53.0873 212.109 52.3541 213.821 52.3541C215.369 52.3541 216.101 52.7082 217.021 53.197C216.767 55.4414 214.985 57.1372 212.86 57.1571ZM232.783 44L228.748 54.8429H228.622L224.442 44H220.661L226.933 59.1571L223.358 67.5811H227.017L236.667 44H232.783ZM201.155 60H204.669V35.0025H201.155V60Z" fill="white"/>
<path fill-rule="evenodd" clip-rule="evenodd" d="M19.6277 15.0673C19.0835 15.6907 18.7692 16.6433 18.7692 17.8902V62.1147C18.7692 63.3615 19.0835 64.3142 19.6465 64.9127L19.7919 65.0473L43.0974 40.2693V39.7157L19.7731 14.9326L19.6277 15.0673Z" fill="url(#paint0_linear_2_356)"/>
<path fill-rule="evenodd" clip-rule="evenodd" d="M50.8516 48.5536L43.0784 40.2893V39.7107L50.8516 31.4464L51.0205 31.5561L60.2151 37.1122C62.8469 38.6883 62.8469 41.2918 60.2151 42.8878L51.0205 48.4439L50.8516 48.5536Z" fill="url(#paint1_linear_2_356)"/>
<path fill-rule="evenodd" clip-rule="evenodd" d="M51.0206 48.4439L43.0785 40L19.6276 64.9327C20.4861 65.9102 21.9263 66.0199 23.5353 65.0673L51.0206 48.4439Z" fill="url(#paint2_linear_2_356)"/>
<path fill-rule="evenodd" clip-rule="evenodd" d="M51.0206 31.5561L23.5353 14.9576C21.9263 13.98 20.4814 14.1147 19.6276 15.0923L43.0785 40L51.0206 31.5561Z" fill="url(#paint3_linear_2_356)"/>
<path opacity="0.2" fill-rule="evenodd" clip-rule="evenodd" d="M50.8518 48.2645L23.554 64.7532C22.0293 65.6859 20.6689 65.621 19.7917 64.7731L19.6462 64.9277L19.7917 65.0624C20.6689 65.9053 22.0293 65.9751 23.554 65.0425L51.0394 48.444L50.8518 48.2645Z" fill="black"/>
<path opacity="0.12" fill-rule="evenodd" clip-rule="evenodd" d="M60.2152 42.5985L50.8283 48.2643L50.9972 48.4439L60.1918 42.8878C61.51 42.0898 62.1574 41.0424 62.1574 40C62.0776 40.9576 61.4068 41.8653 60.2152 42.5985Z" fill="black"/>
<path opacity="0.25" fill-rule="evenodd" clip-rule="evenodd" d="M23.5354 15.247L60.2153 37.4016C61.4068 38.1148 62.0777 39.0475 62.1809 40.0001C62.1809 38.9577 61.5335 37.9103 60.2153 37.1123L23.5354 14.9577C20.9037 13.3567 18.7692 14.6933 18.7692 17.8903V18.1796C18.7692 14.9776 20.9037 13.6659 23.5354 15.247Z" fill="white"/>
<defs>
<linearGradient id="paint0_linear_2_356" x1="41.0069" y1="17.4131" x2="3.38794" y2="26.841" gradientUnits="userSpaceOnUse">
<stop stop-color="#00A0FF"/>
<stop offset="0.00657" stop-color="#00A1FF"/>
<stop offset="0.2601" stop-color="#00BEFF"/>
<stop offset="0.5122" stop-color="#00D2FF"/>
<stop offset="0.7604" stop-color="#00DFFF"/>
<stop offset="1" stop-color="#00E3FF"/>
</linearGradient>
<linearGradient id="paint1_linear_2_356" x1="63.6472" y1="40.0001" x2="18.1292" y2="40.0001" gradientUnits="userSpaceOnUse">
<stop stop-color="#FFE000"/>
<stop offset="0.4087" stop-color="#FFBD00"/>
<stop offset="0.7754" stop-color="#FFA500"/>
<stop offset="1" stop-color="#FF9C00"/>
</linearGradient>
<linearGradient id="paint2_linear_2_356" x1="46.702" y1="44.5947" x2="13.94" y2="96.4588" gradientUnits="userSpaceOnUse">
<stop stop-color="#FF3A44"/>
<stop offset="1" stop-color="#C31162"/>
</linearGradient>
<linearGradient id="paint3_linear_2_356" x1="13.7224" y1="0.35758" x2="28.3396" y2="23.5221" gradientUnits="userSpaceOnUse">
<stop stop-color="#32A071"/>
<stop offset="0.0685" stop-color="#2DA771"/>
<stop offset="0.4762" stop-color="#15CF74"/>
<stop offset="0.8009" stop-color="#06E775"/>
<stop offset="1" stop-color="#00F076"/>
</linearGradient>
</defs>
</svg>
