<svg width="1440" height="110" viewBox="0 0 1440 110" fill="none" xmlns="http://www.w3.org/2000/svg">
<path fill-rule="evenodd" clip-rule="evenodd" d="M0 0L15.6 2.03704C30 4.07407 60 8.14815 90 20.3704C120 32.5926 150 52.963 180 55C210 57.037 240 40.7407 270 36.6667C300 32.5926 330 40.7407 360 48.8889C390 57.037 420 65.1852 450 75.3704C480 85.5556 510 97.7778 540 99.8148C570 101.852 600 93.7037 630 75.3704C660 57.037 690 28.5185 720 22.4074C750 16.2963 780 32.5926 810 38.7037C840 44.8148 870 40.7407 900 44.8148C930 48.8889 960 61.1111 990 57.037C1020 52.963 1050 32.5926 1080 20.3704C1110 8.14815 1140 4.07407 1170 14.2593C1200 24.4444 1230 48.8889 1260 48.8889C1290 48.8889 1320 24.4444 1350 12.2222C1380 0 1410 0 1425.6 0H1440V110H1425.6C1410 110 1380 110 1350 110C1320 110 1290 110 1260 110C1230 110 1200 110 1170 110C1140 110 1110 110 1080 110C1050 110 1020 110 990 110C960 110 930 110 900 110C870 110 840 110 810 110C780 110 750 110 720 110C690 110 660 110 630 110C600 110 570 110 540 110C510 110 480 110 450 110C420 110 390 110 360 110C330 110 300 110 270 110C240 110 210 110 180 110C150 110 120 110 90 110C60 110 30 110 15.6 110H0V0Z" fill="#F9F9FA"/>
</svg>
